REM DIRINDEX 1\2,1\3,1\4,1\5\6,1\5\7,1\8
REM DIRNAME cjc115,folder01,folder02,folder03,folder04,folder05,folder06,folder07
TITLE ""
FILE "039 【039】Unit3 (0433 recommend_0444 problematic).mp3" MP3
  TRACK 01 AUDIO
    TITLE "0:"
    INDEX 01 00:00:00
  TRACK 02 AUDIO
    TITLE "8:cjc115_1527"
    INDEX 01 00:00:07
  TRACK 03 AUDIO
    TITLE "0:"
    INDEX 01 00:01:34
  TRACK 04 AUDIO
    TITLE "2:cjc115_1528"
    INDEX 01 00:02:04
  TRACK 05 AUDIO
    TITLE "0:"
    INDEX 01 00:03:31
  TRACK 06 AUDIO
    TITLE "3:cjc115_1529"
    INDEX 01 00:03:39
  TRACK 07 AUDIO
    TITLE "0:"
    INDEX 01 00:05:73
  TRACK 08 AUDIO
    TITLE "4:cjc115_1530"
    INDEX 01 00:06:08
  TRACK 09 AUDIO
    TITLE "0:"
    INDEX 01 00:10:43
  TRACK 10 AUDIO
    TITLE "2:cjc115_1531"
    INDEX 01 00:11:56
  TRACK 11 AUDIO
    TITLE "0:"
    INDEX 01 00:12:67
  TRACK 12 AUDIO
    TITLE "3:cjc115_1532"
    INDEX 01 00:13:00
  TRACK 13 AUDIO
    TITLE "0:"
    INDEX 01 00:15:13
  TRACK 14 AUDIO
    TITLE "4:cjc115_1533"
    INDEX 01 00:15:21
  TRACK 15 AUDIO
    TITLE "0:"
    INDEX 01 00:19:11
  TRACK 16 AUDIO
    TITLE "2:cjc115_1534"
    INDEX 01 00:20:22
  TRACK 17 AUDIO
    TITLE "0:"
    INDEX 01 00:21:41
  TRACK 18 AUDIO
    TITLE "3:cjc115_1535"
    INDEX 01 00:21:51
  TRACK 19 AUDIO
    TITLE "0:"
    INDEX 01 00:23:08
  TRACK 20 AUDIO
    TITLE "4:cjc115_1536"
    INDEX 01 00:23:16
  TRACK 21 AUDIO
    TITLE "0:"
    INDEX 01 00:26:24
  TRACK 22 AUDIO
    TITLE "2:cjc115_1537"
    INDEX 01 00:27:34
  TRACK 23 AUDIO
    TITLE "0:"
    INDEX 01 00:28:53
  TRACK 24 AUDIO
    TITLE "3:cjc115_1538"
    INDEX 01 00:28:60
  TRACK 25 AUDIO
    TITLE "0:"
    INDEX 01 00:30:20
  TRACK 26 AUDIO
    TITLE "4:cjc115_1539"
    INDEX 01 00:30:28
  TRACK 27 AUDIO
    TITLE "0:"
    INDEX 01 00:34:34
  TRACK 28 AUDIO
    TITLE "2:cjc115_1540"
    INDEX 01 00:35:43
  TRACK 29 AUDIO
    TITLE "0:"
    INDEX 01 00:36:62
  TRACK 30 AUDIO
    TITLE "3:cjc115_1541"
    INDEX 01 00:36:72
  TRACK 31 AUDIO
    TITLE "0:"
    INDEX 01 00:38:08
  TRACK 32 AUDIO
    TITLE "4:cjc115_1542"
    INDEX 01 00:38:18
  TRACK 33 AUDIO
    TITLE "0:"
    INDEX 01 00:41:59
  TRACK 34 AUDIO
    TITLE "2:cjc115_1543"
    INDEX 01 00:42:66
  TRACK 35 AUDIO
    TITLE "0:"
    INDEX 01 00:44:07
  TRACK 36 AUDIO
    TITLE "3:cjc115_1544"
    INDEX 01 00:44:16
  TRACK 37 AUDIO
    TITLE "0:"
    INDEX 01 00:45:20
  TRACK 38 AUDIO
    TITLE "4:cjc115_1545"
    INDEX 01 00:45:26
  TRACK 39 AUDIO
    TITLE "0:"
    INDEX 01 00:48:59
  TRACK 40 AUDIO
    TITLE "2:cjc115_1546"
    INDEX 01 00:49:69
  TRACK 41 AUDIO
    TITLE "0:"
    INDEX 01 00:51:18
  TRACK 42 AUDIO
    TITLE "3:cjc115_1547"
    INDEX 01 00:51:28
  TRACK 43 AUDIO
    TITLE "0:"
    INDEX 01 00:52:53
  TRACK 44 AUDIO
    TITLE "4:cjc115_1548"
    INDEX 01 00:52:59
  TRACK 45 AUDIO
    TITLE "0:"
    INDEX 01 00:57:29
  TRACK 46 AUDIO
    TITLE "2:cjc115_1549"
    INDEX 01 00:58:34
  TRACK 47 AUDIO
    TITLE "0:"
    INDEX 01 00:59:43
  TRACK 48 AUDIO
    TITLE "3:cjc115_1550"
    INDEX 01 00:59:51
  TRACK 49 AUDIO
    TITLE "0:"
    INDEX 01 01:01:68
  TRACK 50 AUDIO
    TITLE "4:cjc115_1551"
    INDEX 01 01:02:03
  TRACK 51 AUDIO
    TITLE "0:"
    INDEX 01 01:06:71
  TRACK 52 AUDIO
    TITLE "2:cjc115_1552"
    INDEX 01 01:08:03
  TRACK 53 AUDIO
    TITLE "0:"
    INDEX 01 01:09:28
  TRACK 54 AUDIO
    TITLE "3:cjc115_1553"
    INDEX 01 01:09:32
  TRACK 55 AUDIO
    TITLE "0:"
    INDEX 01 01:11:29
  TRACK 56 AUDIO
    TITLE "4:cjc115_1554"
    INDEX 01 01:11:45
  TRACK 57 AUDIO
    TITLE "0:"
    INDEX 01 01:15:25
  TRACK 58 AUDIO
    TITLE "2:cjc115_1555"
    INDEX 01 01:16:32
  TRACK 59 AUDIO
    TITLE "0:"
    INDEX 01 01:17:32
  TRACK 60 AUDIO
    TITLE "3:cjc115_1556"
    INDEX 01 01:17:37
  TRACK 61 AUDIO
    TITLE "0:"
    INDEX 01 01:20:10
  TRACK 62 AUDIO
    TITLE "4:cjc115_1557"
    INDEX 01 01:20:18
  TRACK 63 AUDIO
    TITLE "0:"
    INDEX 01 01:23:65
  TRACK 64 AUDIO
    TITLE "2:cjc115_1558"
    INDEX 01 01:24:73
  TRACK 65 AUDIO
    TITLE "0:"
    INDEX 01 01:26:13
  TRACK 66 AUDIO
    TITLE "3:cjc115_1559"
    INDEX 01 01:26:23
  TRACK 67 AUDIO
    TITLE "0:"
    INDEX 01 01:28:39
  TRACK 68 AUDIO
    TITLE "4:cjc115_1560"
    INDEX 01 01:28:45
  TRACK 69 AUDIO
    TITLE "0:"
    INDEX 01 01:33:13
  TRACK 70 AUDIO
    TITLE "2:cjc115_1561"
    INDEX 01 01:34:22
  TRACK 71 AUDIO
    TITLE "0:"
    INDEX 01 01:35:47
  TRACK 72 AUDIO
    TITLE "3:cjc115_1562"
    INDEX 01 01:35:55
  TRACK 73 AUDIO
    TITLE "0:"
    INDEX 01 01:38:71
  TRACK 74 AUDIO
    TITLE "4:cjc115_1563"
    INDEX 01 01:39:06
  TRACK 75 AUDIO
    TITLE "0:"
    INDEX 01 01:43:43
